<svg width="20" height="20" viewBox="0 0 20 20" fill="none" xmlns="http://www.w3.org/2000/svg">
<path fill-rule="evenodd" clip-rule="evenodd" d="M8.50355 1.33963L9.49451 0.322914C9.91411 -0.107586 10.5926 -0.107586 11.0077 0.322914L19.6853 9.22147C20.1049 9.65197 20.1049 10.3481 19.6853 10.774L11.0077 19.6772C10.5881 20.1077 9.90964 20.1077 9.49451 19.6772L8.50355 18.6604C8.07949 18.2254 8.08842 17.5155 8.52141 17.0896L13.9003 11.832L1.07136 11.832C0.477669 11.832 4.76837e-05 11.3419 4.76837e-05 10.7328V9.26727C4.76837e-05 8.65816 0.477669 8.16812 1.07136 8.16812L13.9003 8.16812L8.52141 2.91051C8.08397 2.48459 8.07503 1.77472 8.50355 1.33964V1.33963Z" fill="#3C72FC"/>
</svg>
