<svg width="71" height="56" viewBox="0 0 71 56" fill="none" xmlns="http://www.w3.org/2000/svg">
<path fill-rule="evenodd" clip-rule="evenodd" d="M70.5953 29.7824V43.0191C70.5953 43.3408 70.4918 43.6051 70.285 43.8119C70.0782 44.0187 69.8139 44.1221 69.4922 44.1221H66.183V48.5344C66.183 50.3728 65.5396 51.9354 64.2527 53.2223C62.9658 54.5092 61.4032 55.1526 59.5648 55.1526C57.7263 55.1526 56.1637 54.5092 54.8768 53.2223C53.5899 51.9354 52.9465 50.3728 52.9465 48.5344V44.1221H17.6488V48.5344C17.6488 50.3728 17.0054 51.9354 15.7185 53.2223C14.4316 54.5092 12.8689 55.1526 11.0305 55.1526C9.1921 55.1526 7.62945 54.5092 6.34256 53.2223C5.05567 51.9354 4.41222 50.3728 4.41222 48.5344V44.1221H1.10307C0.78135 44.1221 0.51707 44.0187 0.31024 43.8119C0.10341 43.6051 0 43.3408 0 43.0191V29.7824C0 27.6453 0.75261 25.8241 2.25783 24.3189C3.76305 22.8137 5.58423 22.0611 7.72136 22.0611H8.68653L12.3059 7.61796C12.8345 5.45783 14.0295 3.64813 15.8909 2.18888C17.7523 0.72962 19.809 -1e-05 22.0611 0H48.5343C50.7864 0 52.8431 0.72963 54.7045 2.18888C56.5659 3.64814 57.7609 5.45783 58.2895 7.61796L61.9088 22.0611H62.874C65.0112 22.0611 66.8324 22.8137 68.3375 24.3189C69.8427 25.8241 70.5953 27.6453 70.5954 29.7824H70.5953ZM65.08 33.0916C65.08 31.5749 64.5399 30.2765 63.4599 29.1964C62.3798 28.1164 61.0814 27.5763 59.5647 27.5763C58.048 27.5763 56.7497 28.1164 55.6696 29.1964C54.5895 30.2765 54.0495 31.5749 54.0495 33.0916C54.0495 34.6083 54.5895 35.9066 55.6696 36.9867C56.7497 38.0668 58.048 38.6068 59.5647 38.6068C61.0814 38.6068 62.3798 38.0668 63.4599 36.9867C64.5399 35.9066 65.08 34.6083 65.08 33.0916ZM17.7866 22.0611H52.8085L49.7406 9.75515C49.6946 9.57133 49.5338 9.37025 49.258 9.15192C48.9823 8.93359 48.741 8.82442 48.5341 8.82442H22.0609C21.8541 8.82442 21.6128 8.93359 21.337 9.15192C21.0613 9.37025 20.9004 9.57133 20.8545 9.75515L17.7866 22.0611ZM16.5457 33.0916C16.5457 31.5749 16.0057 30.2765 14.9256 29.1964C13.8455 28.1164 12.5472 27.5763 11.0305 27.5763C9.5138 27.5763 8.21542 28.1164 7.13536 29.1964C6.05529 30.2765 5.51526 31.5749 5.51526 33.0916C5.51526 34.6083 6.05529 35.9066 7.13536 36.9867C8.21542 38.0668 9.5138 38.6068 11.0305 38.6068C12.5472 38.6068 13.8455 38.0668 14.9256 36.9867C16.0057 35.9066 16.5457 34.6083 16.5457 33.0916Z" fill="white"/>
</svg>
