<svg width="36" height="36" viewBox="0 0 36 36" fill="none" xmlns="http://www.w3.org/2000/svg">
<path fill-rule="evenodd" clip-rule="evenodd" d="M35.9943 17.9979C35.9943 8.05793 27.9367 1.88302e-06 17.9972 1.88302e-06C8.05756 1.88302e-06 -4.58364e-05 8.05793 -4.58364e-05 17.9979C-4.58364e-05 26.9812 6.58126 34.427 15.1851 35.7772V23.2005H10.6155V17.9979H15.1851V14.0328C15.1851 9.52203 17.8719 7.03045 21.9828 7.03045C23.9519 7.03045 26.0115 7.38195 26.0115 7.38195V11.8111H23.7422C21.5065 11.8111 20.8092 13.1985 20.8092 14.6218V17.9979H25.8006L25.0027 23.2005H20.8092V35.7772C29.4131 34.427 35.9943 26.9812 35.9943 17.9979Z" fill="white"/>
</svg>
