<svg width="33" height="33" viewBox="0 0 33 33" fill="none" xmlns="http://www.w3.org/2000/svg">
<path fill-rule="evenodd" clip-rule="evenodd" d="M9.00005 1.5H24C28.1422 1.5 31.5 4.85787 31.5 9V24C31.5 28.1421 28.1422 31.5 24 31.5H9.00005C4.85792 31.5 1.50005 28.1421 1.50005 24V9C1.50005 4.85787 4.85792 1.5 9.00005 1.5Z" stroke="white" stroke-width="3" stroke-linecap="round" stroke-linejoin="round"/>
<path fill-rule="evenodd" clip-rule="evenodd" d="M22.4952 15.5557C22.8746 18.1142 21.5705 20.6275 19.2603 21.7903C16.95 22.9531 14.1545 22.5033 12.3256 20.6744C10.4968 18.8456 10.0469 16.05 11.2097 13.7397C12.3725 11.4295 14.8858 10.1254 17.4443 10.5048C20.0567 10.8921 22.1079 12.9434 22.4952 15.5557Z" stroke="white" stroke-width="3" stroke-linecap="round" stroke-linejoin="round"/>
</svg>
