<svg width="27" height="27" viewBox="0 0 27 27" fill="none" xmlns="http://www.w3.org/2000/svg">
<path fill-rule="evenodd" clip-rule="evenodd" d="M22.5 22.5H18.6328V15.9258C18.6328 14.3508 18.0703 13.275 16.6711 13.275C15.6024 13.275 14.9695 13.9992 14.6883 14.7023C14.5828 14.9555 14.5547 15.3 14.5547 15.6516V22.5H10.6875V10.4766H14.5547V12.15C15.1172 11.3484 15.9961 10.1953 18.0422 10.1953C20.5805 10.1953 22.5 11.8688 22.5 15.4758V22.5ZM6.56719 8.64843H6.53907C5.30157 8.64843 4.50001 7.72734 4.50001 6.57421C4.50001 5.39999 5.32267 4.49999 6.58829 4.49999C7.85392 4.49999 8.62735 5.39296 8.65548 6.57421C8.65548 7.72733 7.85392 8.64843 6.5672 8.64843H6.56719ZM8.3672 22.5H4.50001V10.4766H8.3672V22.5ZM24.8344 0H2.30625C1.07578 0 0 0.88594 0 2.10234V24.6797C0 25.9031 1.07578 26.993 2.30625 26.993H24.8273C26.0648 26.993 26.993 25.8961 26.993 24.6797V2.10234C27 0.88593 26.0648 0 24.8344 0H24.8344Z" fill="white"/>
</svg>
