<svg width="17" height="23" viewBox="0 0 17 23" fill="none" xmlns="http://www.w3.org/2000/svg">
<path fill-rule="evenodd" clip-rule="evenodd" d="M8.4232 11.9329C10.3615 11.9329 11.9329 10.3616 11.9329 8.42321C11.9329 6.48486 10.3615 4.91354 8.4232 4.91354C6.48485 4.91354 4.91353 6.48486 4.91353 8.42321C4.91353 10.3616 6.48485 11.9329 8.4232 11.9329ZM7.55754 22.0087C1.18319 12.7678 0 11.8194 0 8.4232C0 3.77118 3.77118 0 8.4232 0C13.0752 0 16.8464 3.77118 16.8464 8.4232C16.8464 11.8194 15.6632 12.7678 9.28886 22.0087C8.87055 22.613 7.97581 22.6129 7.55754 22.0087Z" fill="#22B0FE"/>
</svg>
