<svg width="34" height="27" viewBox="0 0 34 27" fill="none" xmlns="http://www.w3.org/2000/svg">
<path fill-rule="evenodd" clip-rule="evenodd" d="M33.181 3.19922C31.9575 3.74063 30.6497 4.10625 29.2715 4.275C30.6778 3.43125 31.7606 2.09531 32.2669 0.50625C30.952 1.28672 29.4965 1.85625 27.9426 2.15859C26.6981 0.82968 24.9262 0 22.9714 0C19.2097 0 16.1651 3.05156 16.1651 6.81328C16.1651 7.34766 16.2213 7.86797 16.3409 8.36719C10.6806 8.08594 5.66026 5.37188 2.3063 1.24453C1.7227 2.25 1.3852 3.42422 1.3852 4.66875C1.3852 7.03125 2.59459 9.11953 4.42274 10.343C3.29772 10.3149 2.24302 10.0055 1.32895 9.49219C1.32895 9.52031 1.32895 9.54844 1.32895 9.57657C1.32895 12.8813 3.67742 15.6305 6.7923 16.2563C6.22277 16.411 5.61807 16.4953 4.99931 16.4953C4.56336 16.4953 4.13446 16.4531 3.7196 16.3688C4.58445 19.0758 7.10168 21.0445 10.083 21.1008C7.7556 22.9289 4.81649 24.0188 1.62426 24.0188C1.07581 24.0188 0.534406 23.9836 1.82746e-05 23.9203C3.0024 25.875 6.58136 27 10.4205 27C22.9574 27 29.8059 16.6149 29.8059 7.60782C29.8059 7.31251 29.7989 7.0172 29.7848 6.72891C31.1137 5.76563 32.2669 4.57032 33.181 3.19922Z" fill="white"/>
</svg>
